<svg width="20" height="20" viewBox="0 0 20 20" fill="none" xmlns="http://www.w3.org/2000/svg">
<path d="M10 20C15.5228 20 20 15.5228 20 10C20 4.47715 15.5228 0 10 0C4.47715 0 0 4.47715 0 10C0 15.5228 4.47715 20 10 20Z" fill="#1798FF"/>
<path d="M14.5602 10.7013C14.608 10.594 14.6463 10.4867 14.6845 10.3696C14.7228 10.2525 14.7897 10.1354 14.8088 10.0281H14.7801C14.914 9.57919 15 9.10105 15 8.60339C15 5.78335 12.7629 3.5 10 3.5C7.23709 3.5 5 5.78335 5 8.60339C5 9.10105 5.0956 9.57919 5.21988 10.0281H5.1912C5.21989 10.1256 5.28681 10.2622 5.32505 10.3793C5.36329 10.4769 5.39197 10.5745 5.43977 10.6721C5.54493 10.9063 5.67878 11.16 5.83174 11.4137C5.83174 11.4234 5.8413 11.4332 5.85086 11.443C6.95029 13.297 9.03442 15.6193 9.75143 16.3902C9.88528 16.5366 10.1052 16.5366 10.239 16.3902C10.9465 15.6193 13.0306 13.3067 14.1396 11.443C14.1587 11.4137 14.1778 11.3746 14.1969 11.3356C14.3308 11.1014 14.4551 10.877 14.5507 10.6623L14.5602 10.7013Z" fill="white"/>
<path d="M10 10.6875C11.3807 10.6875 12.5 9.56821 12.5 8.1875C12.5 6.80679 11.3807 5.6875 10 5.6875C8.61929 5.6875 7.5 6.80679 7.5 8.1875C7.5 9.56821 8.61929 10.6875 10 10.6875Z" fill="#1798FF"/>
</svg>
