<svg width="20" height="20" viewBox="0 0 20 20" fill="none" xmlns="http://www.w3.org/2000/svg">
<path d="M10 20C15.5228 20 20 15.5228 20 10C20 4.47715 15.5228 0 10 0C4.47715 0 0 4.47715 0 10C0 15.5228 4.47715 20 10 20Z" fill="#1798FF"/>
<path d="M9.50259 16.969C9.43415 16.969 9.36571 16.9483 9.29727 16.9172C9.12129 16.8344 9.01374 16.6481 9.01374 16.4515V11.3906L5.78734 14.0608C5.57224 14.2367 5.26916 14.1953 5.10295 13.9676C4.93674 13.74 4.97585 13.4191 5.19094 13.2432L9.01374 10.0763V9.98312L5.20072 6.95076C4.98562 6.77482 4.93674 6.45398 5.10295 6.22629C5.26916 5.9986 5.57224 5.94686 5.78734 6.1228L9.01374 8.68945V3.51476C9.01374 3.31812 9.12129 3.13183 9.29727 3.04904C9.47326 2.96624 9.6688 2.98693 9.81545 3.12147L13.824 6.61957C13.9413 6.72306 14 6.86795 14 7.0232C14 7.17844 13.9316 7.32333 13.8142 7.42682L10.6758 10.0245L13.8045 12.5187C13.9218 12.6119 14 12.7568 14 12.9223C14 13.0776 13.9413 13.2328 13.824 13.3363L9.81545 16.8758C9.72746 16.9586 9.61014 17 9.50259 17V16.969ZM9.99144 10.7593V15.3441L12.729 12.9327L9.99144 10.7593ZM9.99144 4.61179V9.26901L12.729 7.00249L9.99144 4.61179Z" fill="white"/>
</svg>
