<svg xmlns="http://www.w3.org/2000/svg" width="20" height="20" viewBox="0 0 20 20">
  <path d="M10,20C15.523,20 20,15.523 20,10C20,4.477 15.523,0 10,0C4.477,0 0,4.477 0,10C0,15.523 4.477,20 10,20Z" fill="#1798FF"/>
  <path d="M15,7.5C15,7.224 14.776,7 14.5,7H13.707L13.146,5.854C13.053,5.658 12.848,5.5 12.618,5.5H7.382C7.152,5.5 6.947,5.658 6.854,5.854L6.293,7H5.5C5.224,7 5,7.224 5,7.5V13.5C5,13.776 5.224,14 5.5,14H14.5C14.776,14 15,13.776 15,13.5V7.5Z" fill="#ffffff"/>
  <path d="M10,12.5C11.381,12.5 12.5,11.381 12.5,10C12.5,8.619 11.381,7.5 10,7.5C8.619,7.5 7.5,8.619 7.5,10C7.5,11.381 8.619,12.5 10,12.5Z" fill="#1798FF"/>
</svg>
