<svg width="20" height="20" viewBox="0 0 20 20" fill="none" xmlns="http://www.w3.org/2000/svg">
<path d="M10 20C15.5228 20 20 15.5228 20 10C20 4.47715 15.5228 0 10 0C4.47715 0 0 4.47715 0 10C0 15.5228 4.47715 20 10 20Z" fill="#1798FF"/>
<path d="M8.54695 14.4734H4.56196C4.42455 14.0073 4.50307 13.738 4.92513 13.5309C5.66127 13.1787 5.92628 12.4641 5.95573 11.6666C5.97536 11.0762 5.91647 10.4859 5.92628 9.88519C5.92628 9.12912 5.86739 8.34198 6.02444 7.61699C6.37778 6.01165 7.45746 5.18308 8.89049 4.52023C9.17186 4.38904 9.31254 4.20952 9.31254 3.98167C9.29291 3.2256 9.5383 2.89417 10.0094 2.90453C10.4707 2.91489 10.6867 3.24631 10.667 3.97131C10.667 4.19916 10.8045 4.38214 11.0793 4.52023C12.797 5.36951 14.1122 6.72628 14.1122 8.73555C14.1122 9.46055 14.0337 10.1959 14.0239 10.9209C14.0239 11.3766 14.0533 11.8323 14.1318 12.2777C14.2398 12.8577 14.5637 13.3237 15.0937 13.5516C15.5256 13.738 15.555 14.028 15.4471 14.4837C15.1821 14.4837 14.8974 14.4837 14.6128 14.4837C13.6509 14.4837 12.6792 14.4837 11.7173 14.4941C11.5897 14.4941 11.4032 14.6287 11.3639 14.7426C11.0989 15.5298 10.6376 15.9337 9.95054 15.9026C9.27328 15.8819 8.8316 15.4469 8.63529 14.6287C8.63529 14.5976 8.61566 14.5769 8.56659 14.463L8.54695 14.4734Z" fill="white"/>
</svg>
